<svg width="44" height="41" viewBox="0 0 44 41" fill="none" xmlns="http://www.w3.org/2000/svg">
<g id="people">
<path id="Vector" fill-rule="evenodd" clip-rule="evenodd" d="M27.062 2.03027C23.5693 2.03027 20.7379 4.86167 20.7379 8.35438V11.5164C20.7379 15.0092 23.5693 17.8405 27.062 17.8405H28.643C32.1356 17.8405 34.9671 15.0092 34.9671 11.5164V8.35438C34.9671 4.86167 32.1356 2.03027 28.643 2.03027H27.062ZM43.2496 30.1575C44.5731 33.672 41.4088 36.8129 37.6534 36.8129H28.643H19.6326C15.877 36.8129 12.7128 33.672 14.0362 30.1575C14.8307 28.0475 15.9953 26.1304 17.4634 24.5153C18.9315 22.9005 20.6745 21.6194 22.5927 20.7454C24.5108 19.8714 26.5666 19.4216 28.643 19.4216C30.7192 19.4216 32.775 19.8714 34.6931 20.7454C36.6114 21.6194 38.3543 22.9005 39.8224 24.5153C41.2906 26.1304 42.4552 28.0475 43.2496 30.1575Z" fill="url(#paint0_linear_35_198)"/>
<g id="Group">
<path id="Vector_2" d="M20.8958 0.449219H14.0184C11.3988 0.449219 9.27527 2.57277 9.27527 5.1923V13.888C9.27527 16.5075 11.3988 18.631 14.0184 18.631H20.8958C23.5154 18.631 25.6389 16.5075 25.6389 13.888V5.1923C25.6389 2.57277 23.5154 0.449219 20.8958 0.449219Z" fill="#FF3D00" fill-opacity="0.52"/>
<path id="Vector_3" d="M31.805 40.449C34.4246 40.449 36.6005 38.301 36.0375 35.7427C35.8167 34.7391 35.525 33.7536 35.164 32.7952C34.2503 30.3688 32.911 28.1641 31.2227 26.3068C29.5344 24.4496 27.53 22.9764 25.3242 21.9713C23.1182 20.9663 20.7539 20.449 18.3662 20.449C15.9786 20.449 13.6143 20.9663 11.4083 21.9713C9.20243 22.9764 7.19808 24.4496 5.50973 26.3068C3.8214 28.1641 2.48213 30.3688 1.56841 32.7952C1.20754 33.7536 0.915832 34.7391 0.694951 35.7427C0.131869 38.301 2.30796 40.449 4.92749 40.449H18.3662H31.805Z" fill="#FF3D00" fill-opacity="0.52"/>
</g>
</g>
<defs>
<linearGradient id="paint0_linear_35_198" x1="14.4136" y1="8.35438" x2="65.797" y2="47.8801" gradientUnits="userSpaceOnUse">
<stop stop-color="#F3EEE4"/>
<stop offset="1" stop-color="#FF3D00"/>
</linearGradient>
</defs>
</svg>
