<svg xmlns="http://www.w3.org/2000/svg">
    <symbol id="search" viewBox="0 0 15 15">
        <path
            d="M10.865 10.2191L13.75 13.125M12.4167 6.45833C12.4167 9.40387 10.0289 11.7917 7.08333 11.7917C4.13781 11.7917 1.75 9.40387 1.75 6.45833C1.75 3.51281 4.13781 1.125 7.08333 1.125C10.0289 1.125 12.4167 3.51281 12.4167 6.45833Z"
            stroke="currentColor" fill="none" stroke-width="2" stroke-linecap="round" stroke-linejoin="round" />
    </symbol>

    <symbol id="arrow-right" viewBox="0 0 21 20">
        <path fill-rule="evenodd" clip-rule="evenodd"
            d="M0.264404 10.154C0.264404 10.7062 0.712124 11.1539 1.2644 11.1539H17.2402C17.1546 11.3022 17.0483 11.4418 16.9215 11.5686L10.5576 17.9326C10.167 18.3231 10.167 18.9563 10.5576 19.3468C10.9481 19.7373 11.5813 19.7373 11.9718 19.3468L20.4571 10.8615C20.8476 10.471 20.8476 9.83777 20.4571 9.44727L11.9716 0.961835C11.5811 0.571315 10.9479 0.571315 10.5574 0.961835C10.1669 1.35237 10.1669 1.98553 10.5574 2.37606L16.9215 8.74017C17.0481 8.86677 17.1541 9.00597 17.2397 9.15396H1.2644C0.712124 9.15386 0.264404 9.60167 0.264404 10.154Z"
            fill="currentColor" />
    </symbol>

    <symbol id="google" viewBox="0 0 21 21">
        <path fill-rule="evenodd" clip-rule="evenodd"
            d="M14.0498 15.6626C14.7178 15.1562 15.2773 14.5146 15.6865 13.7773C15.8457 13.4907 15.9805 13.1895 16.0918 12.8779H10.4404V8.87793H19.4404V8.91943H20.2461C20.3711 9.55273 20.4404 10.2075 20.4404 10.8779C20.4404 11.6289 20.3584 12.3604 20.2012 13.064C19.751 15.0825 18.6895 16.8711 17.2227 18.2261C16.4736 18.9175 15.6201 19.4956 14.6865 19.9341C13.3975 20.5396 11.959 20.8779 10.4404 20.8779C8.02441 20.8779 5.80859 20.021 4.08008 18.5942C1.85742 16.7603 0.44043 13.9844 0.44043 10.8779C0.44043 9.15234 0.87793 7.52832 1.64746 6.11133C3.34082 2.99414 6.64355 0.87793 10.4404 0.87793C13.0742 0.87793 15.4639 1.9043 17.249 3.56885L14.4209 6.39746C13.9502 5.97803 13.4102 5.63086 12.8252 5.37451L12.7402 5.33789C12.0322 5.04199 11.2559 4.87793 10.4404 4.87793C7.92188 4.87793 5.76855 6.43262 4.87891 8.63281C4.59863 9.32715 4.44043 10.083 4.44043 10.8779C4.44043 11.3081 4.48535 11.7275 4.57129 12.1318C4.62793 12.3999 4.70312 12.6611 4.79492 12.915C5.62891 15.2261 7.8418 16.8779 10.4404 16.8779C11.7461 16.8779 12.9531 16.46 13.9365 15.751C13.9756 15.7227 14.0117 15.6919 14.0498 15.6626Z"
            fill="currentColor" />
    </symbol>

    <symbol id="play" viewBox="0 0 36 36">
        <path fill="currentColor"
            d="M7 7.29c0-1.5 1.59-2.466 2.92-1.776l20.656 10.71c1.439.747 1.439 2.805 0 3.552L9.92 30.486C8.589 31.176 7 30.21 7 28.71V7.29Z">
        </path>
    </symbol>

    <symbol id="diamond" viewBox="0 0 19 21">
        <path
            d="M10.1135 0.785664C10.2382 1.06632 10.3631 1.34682 10.4968 1.62338C12.1368 5.01632 14.7205 7.86446 17.9371 9.82636C18.1338 9.94636 18.3329 10.063 18.5344 10.1764C18.8119 10.3324 18.8119 10.7321 18.5344 10.8881C18.3329 11.0015 18.1338 11.1181 17.9371 11.2382C14.7205 13.2 12.1368 16.0482 10.4968 19.4411C10.3631 19.7176 10.2382 19.9981 10.1135 20.2789C9.96325 20.6167 9.4837 20.6167 9.33347 20.2789C9.20875 19.9981 9.0839 19.7176 8.95016 19.4411C7.31012 16.0482 4.72642 13.2 1.50987 11.2382C1.31312 11.1181 1.11402 11.0015 0.912614 10.8881C0.635086 10.7321 0.635086 10.3324 0.912614 10.1764C1.11402 10.063 1.31312 9.94636 1.50987 9.82636C4.72642 7.86446 7.31012 5.01632 8.95016 1.62338C9.08364 1.34725 9.20875 1.06641 9.33347 0.785664C9.4837 0.447747 9.96325 0.447747 10.1135 0.785664Z"
            fill="currentColor" />
    </symbol>
    <symbol id="star" viewBox="0 0 11 10">
        <path
            d="M5.54704 0.516428C5.67794 0.222746 5.74342 0.0759049 5.83457 0.0306861C5.91373 -0.00860111 6.00669 -0.00860111 6.08585 0.0306861C6.177 0.0759049 6.24248 0.222746 6.37338 0.516428L7.41607 2.85564C7.4548 2.94246 7.47414 2.98587 7.50411 3.01911C7.53057 3.04853 7.56297 3.07205 7.5991 3.08816C7.63998 3.10637 7.68725 3.11135 7.7818 3.12133L10.3287 3.39015C10.6485 3.42389 10.8084 3.44077 10.8795 3.51348C10.9413 3.57663 10.9701 3.66507 10.9572 3.75251C10.9424 3.85316 10.8229 3.96076 10.5841 4.17603L8.68154 5.89058C8.61097 5.95419 8.57563 5.98602 8.55329 6.02476C8.5335 6.05908 8.52112 6.09713 8.51699 6.13649C8.5123 6.18099 8.52214 6.22747 8.54187 6.32049L9.07328 8.82581C9.14 9.14037 9.17336 9.29762 9.1262 9.38775C9.08521 9.46612 9.01 9.52074 8.92287 9.5355C8.82256 9.55247 8.68329 9.47217 8.40475 9.31153L6.18622 8.03192C6.10389 7.98443 6.06273 7.96073 6.01896 7.9514C5.98023 7.9432 5.94019 7.9432 5.90146 7.9514C5.85769 7.96073 5.81653 7.98443 5.7342 8.03192L3.51568 9.31153C3.23715 9.47217 3.09789 9.55247 2.99757 9.5355C2.91043 9.52074 2.83521 9.46612 2.79425 9.38775C2.74709 9.29762 2.78045 9.14037 2.84717 8.82581L3.37855 6.32049C3.39827 6.22747 3.40813 6.18099 3.40345 6.13649C3.39931 6.09713 3.38694 6.05908 3.36715 6.02476C3.34479 5.98602 3.30948 5.95419 3.23887 5.89058L1.33636 4.17603C1.09751 3.96076 0.978081 3.85316 0.963232 3.75251C0.95034 3.66507 0.979071 3.57663 1.0409 3.51348C1.11208 3.44077 1.27195 3.42389 1.59172 3.39015L4.13865 3.12133C4.23318 3.11135 4.28044 3.10637 4.32131 3.08816C4.35747 3.07205 4.38985 3.04853 4.41635 3.01911C4.44629 2.98587 4.46564 2.94246 4.50434 2.85564L5.54704 0.516428Z"
            fill="currentColor" />
    </symbol>

    <symbol id="open">
        <path fill-rule="evenodd" clip-rule="evenodd"
            d="M1.72155 9.57438C1.5809 9.71503 1.39014 9.79405 1.19122 9.79405C0.992311 9.79405 0.801545 9.71503 0.660893 9.57438C0.520241 9.43373 0.441223 9.24296 0.441223 9.04405C0.441223 8.84514 0.520241 8.65437 0.660893 8.51372L6.82474 2.34987H2.6811C2.48447 2.34655 2.29701 2.26613 2.1591 2.12593C2.02119 1.98574 1.94386 1.79699 1.94377 1.60033C1.94368 1.40368 2.02083 1.21485 2.15861 1.07453C2.29638 0.934203 2.48376 0.853606 2.68039 0.850098H9.38376L9.38447 7.55418C9.38802 7.65483 9.37127 7.75517 9.3352 7.84921C9.29913 7.94325 9.24449 8.02906 9.17454 8.10153C9.10459 8.17399 9.02076 8.23162 8.92805 8.27099C8.83534 8.31035 8.73565 8.33063 8.63494 8.33063C8.53422 8.33063 8.43453 8.31035 8.34182 8.27099C8.24911 8.23162 8.16528 8.17399 8.09533 8.10153C8.02538 8.02906 7.97074 7.94325 7.93467 7.84921C7.89861 7.75517 7.88185 7.65483 7.8854 7.55418L7.8854 3.41053L1.72085 9.57509L1.72155 9.57438Z"
            fill="currentColor" />
    </symbol>

    <symbol id="arrow-top" viewBox="0 0 20 20">
        <path fill-rule="evenodd" clip-rule="evenodd"
            d="M10.0893 20.5288C10.6415 20.5288 11.0892 20.0811 11.0892 19.5288V3.55299C11.2375 3.63859 11.3771 3.74489 11.5039 3.87169L17.8679 10.2356C18.2584 10.6262 18.8916 10.6262 19.2821 10.2356C19.6726 9.84509 19.6726 9.21189 19.2821 8.82139L10.7968 0.336088C10.4063 -0.0544121 9.77307 -0.0544121 9.38257 0.336088L0.897138 8.82159C0.506618 9.21209 0.506618 9.84529 0.897138 10.2358C1.28767 10.6263 1.92083 10.6263 2.31136 10.2358L8.67547 3.87169C8.80207 3.74509 8.94127 3.63909 9.08927 3.55349V19.5288C9.08917 20.0811 9.53697 20.5288 10.0893 20.5288Z"
            fill="currentColor" />
    </symbol>

    <symbol id="delete" viewBox="0 0 15 15">
        <path
            d="M5.38538 3.81055C5.38538 2.56791 6.3927 1.56055 7.63538 1.56055C8.87805 1.56055 9.88538 2.56791 9.88538 3.81055M5.38538 3.81055H9.88538M5.38538 3.81055H3.13538M9.88538 3.81055H12.1354M3.13538 3.81055H1.63538M3.13538 3.81055V12.0605C3.13538 12.889 3.80695 13.5605 4.63538 13.5605H10.6354C11.4638 13.5605 12.1354 12.889 12.1354 12.0605V3.81055M12.1354 3.81055H13.6354"
            stroke="currentColor" stroke-width="1.5" stroke-linecap="round" stroke-linejoin="round" fill="none" />
    </symbol>

    <symbol id="logout" viewBox="0 0 24 24" fill="none">
        <path
            d="M9 4.5H8C5.64298 4.5 4.46447 4.5 3.73223 5.23223C3 5.96447 3 7.14298 3 9.5V14.5C3 16.857 3 18.0355 3.73223 18.7678C4.46447 19.5 5.64298 19.5 8 19.5H9"
            stroke="currentColor" stroke-width="1.5" />
        <path
            d="M9 6.4764C9 4.18259 9 3.03569 9.70725 2.4087C10.4145 1.78171 11.4955 1.97026 13.6576 2.34736L15.9864 2.75354C18.3809 3.17118 19.5781 3.37999 20.2891 4.25826C21 5.13652 21 6.40672 21 8.94711V15.0529C21 17.5933 21 18.8635 20.2891 19.7417C19.5781 20.62 18.3809 20.8288 15.9864 21.2465L13.6576 21.6526C11.4955 22.0297 10.4145 22.2183 9.70725 21.5913C9 20.9643 9 19.8174 9 17.5236V6.4764Z"
            stroke="currentColor" stroke-width="1.5" />
        <path d="M12 11V13" stroke="currentColor" stroke-width="1.5" stroke-linecap="round" />
    </symbol>

    <symbol id="image" viewBox="0 0 13 13">
        <path fill-rule="evenodd" clip-rule="evenodd"
            d="M4.77444 2.6394C5.10061 2.5376 5.40725 2.4895 5.74514 2.4895H7.08792L7.14358 2.50391L7.16458 2.50989C7.2427 2.53198 7.42678 2.58423 7.62893 2.59863C7.68704 2.60278 7.74514 2.61365 7.87503 2.63818L7.92385 2.64734C8.06301 2.67334 8.2803 2.71289 8.522 2.71289C8.73831 2.71289 8.8511 2.73364 9.03176 2.80249C9.19827 2.86584 9.37307 2.89954 9.47219 2.91821L9.5845 2.93884L9.59036 2.93994C9.64749 2.95032 9.69241 2.95862 9.74124 2.96924L9.81057 3.0697L9.81839 3.08093C9.8721 3.15723 9.90188 3.19946 9.92727 3.24133C9.94143 3.26392 9.94925 3.27832 9.95315 3.28662C9.96389 3.50732 10.0313 3.69092 10.0684 3.77991C10.0767 3.89417 10.0923 3.99097 10.1016 4.04858L10.104 4.06238C10.1197 4.15967 10.1192 4.16711 10.1192 4.16711C10.1192 4.34937 10.1582 4.50598 10.1739 4.56604L10.1729 4.62061C10.1719 4.67419 10.1709 4.75537 10.1778 4.84595C10.1856 4.95288 10.209 5.05627 10.2456 5.15381C10.2676 5.21265 10.2935 5.26538 10.3203 5.31201L10.3277 5.3772C10.3496 5.57275 10.3697 5.75073 10.3828 5.92041C10.3902 6.01416 10.3955 6.10535 10.3975 6.19568C10.2237 6.05005 9.99954 5.9624 9.7554 5.9624H8.76272C8.55276 5.9624 8.36184 6.00085 8.1968 6.05347C8.04837 6.10071 7.92093 6.1593 7.81887 6.21143C7.67874 6.28296 7.5054 6.3894 7.39895 6.45471L7.39016 6.45996L7.31839 6.50391C7.06985 6.65015 6.78128 6.85205 6.55471 7.01099L6.40628 7.1145C6.27835 7.203 6.16507 7.30115 6.08255 7.37463L5.98831 7.45886C5.9429 7.49976 5.90628 7.53271 5.86184 7.57056C5.82425 7.60254 5.79593 7.62476 5.77493 7.63989L5.7593 7.6366L5.7471 7.63379C5.6138 7.52869 5.47854 7.46497 5.37649 7.42664C5.31546 7.40356 5.26663 7.38965 5.23782 7.38135L5.22952 7.37915L5.17923 7.36499L5.08792 7.31506L4.9927 7.26501L4.95852 7.24695C4.8804 7.20605 4.83206 7.17908 4.79446 7.15515C4.54446 6.99597 4.29641 6.93738 4.09768 6.9176C3.96243 6.90417 3.85061 6.90869 3.77737 6.91162L3.75491 6.91248C3.64944 6.9165 3.5469 6.93359 3.44876 6.96277C3.34475 6.99377 3.24612 7.03857 3.15481 7.09595C3.02688 7.17627 2.93557 7.2677 2.87844 7.33203L2.84036 7.37695L2.81985 7.4021C2.81448 7.40637 2.80911 7.41052 2.80374 7.41479C2.78811 7.05945 2.78958 6.6925 2.79153 6.29712L2.79251 5.90149C2.79251 5.65613 2.70413 5.43152 2.55764 5.25757C2.6011 5.14551 2.62503 5.02368 2.62503 4.89624C2.62503 4.79053 2.61721 4.68433 2.61135 4.60901L2.60598 4.54419L2.59524 4.39783C2.59329 4.35767 2.59231 4.32922 2.5928 4.30969C2.70022 4.01306 2.80813 3.70898 2.91409 3.40247L2.92044 3.39099L2.94046 3.36047L2.97561 3.31213C3.0303 3.24182 3.10012 3.16614 3.1763 3.09021C3.24514 3.02124 3.29348 2.99512 3.33596 2.98059L3.36428 2.97241L3.41653 2.95886L3.45022 2.95032C3.51712 2.93311 3.64553 2.90015 3.77542 2.84546C3.8262 2.8241 3.89944 2.80591 4.07766 2.77954L4.13479 2.77124C4.24905 2.755 4.41409 2.73145 4.58938 2.68982C4.65042 2.67542 4.71292 2.65869 4.77444 2.6394ZM3.5386 10.0393H6.34719C6.43899 10.0393 6.55276 10.0204 6.78274 9.97473L6.81204 9.96887C6.90628 9.95007 7.02542 9.92639 7.15774 9.9071C7.29544 9.88708 7.44827 9.87183 7.60403 9.87183C8.16018 9.87183 8.64505 9.73865 9.29055 9.5614C9.44241 9.51965 9.60305 9.47546 9.77542 9.43005C10.1128 9.34131 10.4302 9.15796 10.6192 8.96387C10.6211 8.93433 10.6221 8.89832 10.6226 8.85339V8.75891L10.6221 8.74121L10.6216 8.65039L10.6226 8.4292C10.6241 8.10815 10.625 7.89514 10.585 7.67505L10.5791 7.6438C10.5742 7.61853 10.5689 7.58777 10.5625 7.55273C10.3804 7.80115 10.0869 7.9624 9.7554 7.9624H8.79544C8.78372 7.96692 8.76126 7.97595 8.72805 7.99268C8.68362 8.0155 8.63186 8.04517 8.56399 8.08679L8.50589 8.12244L8.33255 8.22766C8.15921 8.32971 7.95999 8.46875 7.73928 8.62305L7.54446 8.75891C7.49075 8.79626 7.45852 8.82568 7.40188 8.87805C7.3511 8.92468 7.28079 8.98962 7.15725 9.0946C6.97659 9.2478 6.64651 9.51233 6.20266 9.61096C5.88528 9.6814 5.54983 9.63892 5.32425 9.58875C5.19534 9.55994 5.05471 9.51807 4.918 9.45911C4.83255 9.42236 4.71731 9.36548 4.59964 9.27954L4.52932 9.25781C4.4888 9.24463 4.43948 9.22705 4.3843 9.20325C4.33548 9.18225 4.28274 9.15649 4.22805 9.12476C4.18753 9.10144 4.147 9.08008 4.08987 9.04993L4.0762 9.04272L4.05325 9.03064C4.02493 9.07849 3.98343 9.14783 3.9302 9.22168L3.92483 9.23291L3.88626 9.31604C3.85989 9.37573 3.83889 9.42615 3.81497 9.48425L3.75637 9.62463L3.751 9.63745C3.72171 9.70764 3.64456 9.89185 3.5386 10.0393ZM0.625027 4.89624C0.625027 5.14148 0.713405 5.36609 0.85989 5.54004C0.816433 5.6521 0.792507 5.77405 0.792507 5.90149L0.79153 6.2522C0.788113 6.85779 0.784695 7.5332 0.857448 8.18994C0.879421 8.38391 0.921902 8.58752 0.952175 8.73181L0.968288 8.80981C1.00344 8.98352 1.01614 9.07629 1.01614 9.1405C1.01614 9.44873 1.11868 9.68481 1.18509 9.81177C1.18704 9.85205 1.19046 9.90247 1.19827 9.95618C1.21585 10.079 1.25393 10.2159 1.32913 10.3558C1.3638 10.4208 1.40237 10.4781 1.44094 10.5286L1.45803 10.5889L1.46341 10.6068L1.48733 10.6896L1.50393 10.7439L1.52298 10.7979C1.56399 10.911 1.61721 11.0061 1.668 11.0815C1.71731 11.1555 1.76419 11.2107 1.79495 11.2456L1.84524 11.3009L1.86282 11.3195L1.86721 11.324L1.87161 11.3285C1.99954 11.4855 2.16946 11.6365 2.34768 11.754C2.50442 11.8573 2.82132 12.0393 3.21682 12.0393H6.34719C6.6553 12.0393 6.95169 11.9803 7.14505 11.9419L7.1719 11.9364C7.40335 11.8905 7.51468 11.8718 7.60403 11.8718C8.45657 11.8718 9.251 11.6505 9.90921 11.4669C10.0401 11.4305 10.1651 11.3956 10.2847 11.3643C10.9781 11.1818 11.7613 10.7633 12.2681 10.1113C12.5283 9.77734 12.5869 9.39539 12.6074 9.18787C12.625 9.00964 12.6231 8.81665 12.6221 8.70874V8.69958L12.6216 8.65039L12.6226 8.49121C12.6255 8.16956 12.6294 7.73853 12.5528 7.31738L12.5479 7.29065C12.5362 7.22485 12.5269 7.17383 12.5196 7.12317L12.5113 7.05981L12.5098 7.03955C12.5098 7.01172 12.5108 7.00366 12.5117 6.98865L12.5157 6.92932L12.5186 6.85083C12.5215 6.75452 12.5244 6.57104 12.4771 6.37048C12.4536 6.26929 12.4214 6.1864 12.396 6.12781C12.3858 5.77222 12.3443 5.40625 12.3096 5.09924L12.3081 5.08899L12.2813 4.84741C12.2696 4.73657 12.2417 4.6322 12.2012 4.53625L12.1748 4.47839C12.1709 4.29663 12.1314 4.14636 12.1177 4.09375C12.1123 3.95032 12.0918 3.82593 12.0806 3.75696L12.0786 3.74341C12.0625 3.64551 12.063 3.63721 12.063 3.63965C12.063 3.50635 12.042 3.38623 12.0166 3.28845C11.9912 3.19238 11.9615 3.11792 11.9424 3.07385C11.9043 2.69531 11.7598 2.4032 11.6309 2.19336C11.5918 2.13025 11.5508 2.06921 11.5147 2.01672L11.4619 1.94092L11.4478 1.9209C11.396 1.84692 11.3662 1.80322 11.3438 1.7644C11.1656 1.45911 10.9068 1.28967 10.7158 1.19653C10.5777 1.12903 10.439 1.08386 10.3213 1.05249C10.2774 1.04065 10.2364 1.03076 10.1992 1.02234C10.0977 0.999268 9.98343 0.978516 9.90286 0.963867L9.8428 0.952881C9.76321 0.937866 9.73635 0.930542 9.73635 0.930542C9.31497 0.771118 8.96048 0.712891 8.522 0.712891C8.48196 0.712891 8.42483 0.706299 8.29202 0.681519L8.24905 0.67334C8.13772 0.651978 7.96145 0.618164 7.78176 0.604492L7.67483 0.575806L7.67093 0.574707C7.56936 0.546753 7.36184 0.489502 7.11038 0.489502H5.74514C5.19827 0.489502 4.69094 0.570312 4.17825 0.730469C4.10208 0.754272 4.02444 0.765747 3.84719 0.79187L3.78421 0.801147C3.59817 0.828735 3.30911 0.873657 3.01028 0.997681L2.95315 1.01306L2.93509 1.0177L2.84231 1.04163C2.79885 1.05347 2.7427 1.06958 2.68167 1.09058C2.44339 1.17297 2.23489 1.28821 2.0513 1.4248C1.94729 1.50232 1.8511 1.58667 1.76175 1.6759C1.59231 1.8457 1.1968 2.2489 1.02737 2.73853C0.91653 3.05896 0.803738 3.37683 0.691433 3.68567C0.572292 4.01318 0.58987 4.3562 0.598659 4.50989C0.605984 4.64478 0.61282 4.7168 0.617702 4.76782L0.618191 4.776C0.622097 4.8208 0.625027 4.8501 0.625027 4.89624ZM3.58401 3.97449C3.86575 3.58423 4.39651 3.44434 4.84134 3.66663C5.23245 3.86218 5.43899 4.21692 5.49417 4.55383C5.52005 4.70996 5.51516 4.86938 5.48196 5.02258C5.45022 5.16797 5.39309 5.30774 5.31155 5.43347C5.22805 5.56238 5.08645 5.71509 4.89309 5.82239C4.69632 5.93188 4.44632 5.99426 4.15042 5.93628C3.86233 5.87976 3.6553 5.72864 3.51126 5.57227C3.40432 5.45642 3.33206 5.33765 3.28665 5.25232C3.18509 5.05969 3.15237 4.84888 3.1802 4.64844C3.21682 4.38428 3.35794 4.13794 3.58401 3.97449Z"
            fill="currentColor" />
    </symbol>
    <symbol id="info" viewBox="0 0 213 501" fill="none">
        <path
            d="M52.7638 237.531V421.983H0.820312V500.783H212.834V421.983H161.95V158.733H0.820312V237.533L52.7638 237.531ZM66.5448 102.607C74.8549 110.967 85.4593 116.671 97.0144 118.999C108.57 121.326 120.556 120.171 131.454 115.681C142.352 111.19 151.672 103.566 158.234 93.7738C164.795 83.9816 168.302 72.4623 168.311 60.6751C168.427 52.8233 166.952 45.0294 163.977 37.7625C161.001 30.4955 156.586 23.9058 150.997 18.3901C145.453 12.8099 138.86 8.38132 131.598 5.3593C124.336 2.33728 116.548 0.781494 108.682 0.781494C100.817 0.781494 93.0284 2.33728 85.7663 5.3593C78.5042 8.38132 71.9115 12.8099 66.3678 18.3901C60.7327 23.8804 56.2756 30.4614 53.2683 37.7315C50.2611 45.0016 48.7668 52.8083 48.8768 60.6751C48.797 68.5012 50.3239 76.2606 53.3628 83.4731C56.4018 90.6856 60.8883 97.1979 66.5448 102.607Z"
            fill="currentColor" />
    </symbol>
</svg>